<svg width="31" height="31" viewBox="0 0 31 31" fill="none" xmlns="http://www.w3.org/2000/svg">
<g id="akar-icons:location">
<g id="Group">
<path id="Vector" d="M15.5 16.792C17.6401 16.792 19.375 15.0571 19.375 12.917C19.375 10.7769 17.6401 9.04199 15.5 9.04199C13.3599 9.04199 11.625 10.7769 11.625 12.917C11.625 15.0571 13.3599 16.792 15.5 16.792Z" stroke="white" stroke-width="2" stroke-linecap="round" stroke-linejoin="round"/>
<path id="Vector_2" d="M15.5003 2.5835C12.7598 2.5835 10.1314 3.67218 8.19356 5.61006C6.25568 7.54794 5.16699 10.1763 5.16699 12.9168C5.16699 15.3607 5.68624 16.9597 7.10449 18.7293L15.5003 28.4168L23.8962 18.7293C25.3144 16.9597 25.8337 15.3607 25.8337 12.9168C25.8337 10.1763 24.745 7.54794 22.8071 5.61006C20.8692 3.67218 18.2409 2.5835 15.5003 2.5835V2.5835Z" stroke="white" stroke-width="2" stroke-linecap="round" stroke-linejoin="round"/>
</g>
</g>
</svg>
